Genre : Animation / Family

Plot : A group of animals waiting for the annual flood they rely on for food and water discover that the humans, who have been destroying their habitats have built a dam for a leisure resort. The animals endeavor to save the delta and send a message to the humans not to interfere with nature.

Infomation
Ripper ...........: IMAGiNE IMDB Rating.......:4.7/10

Video Codec.......: XVID Release Date......:21/04/11

Audio Codec.......:AC3 Theatre Date......:N/A

Audio Bitrate.....:448 Runtime.......:1h 33mn

Subtitles.........:NIL Language..........:ENGLISH

Resolution...... 720 x 304 IMDb URL.......... http://www.imdb.com/title/tt1620449/

DETAILS:

Video

ID : 0

Format : MPEG-4 Visual

Format profile : Advanced Simple@L5

Format settings, BVOP : 2

Format settings, QPel : No

Format settings, GMC : No warppoints

Format settings, Matrix : Default (H.263)

Muxing mode : Packed bitstream

Codec ID : XVID

Codec ID/Hint : XviD

Duration : 1h 33mn

Bit rate : 1 955 Kbps

Width : 720 pixels

Height : 304 pixels

Display aspect ratio : 2.35:1

Frame rate : 23.976 fps

Color space : YUV

Chroma subsampling : 4:2:0

Bit depth : 8 bits

Scan type : Progressive

Compression mode : Lossy

Bits/(Pixel*Frame) : 0.373

Stream size : 1.27 GiB (81%)

Writing library : XviD 1.1.2 (UTC 2006-11-01)

Audio

ID : 1

Format : AC-3

Format/Info : Audio Coding 3

Mode extension : CM (complete main)

Codec ID : 2000

Duration : 1h 33mn

Bit rate mode : Constant

Bit rate : 448 Kbps

Channel(s) : 6 channels

Channel positions : Front: L C R, Side: L R, LFE

Sampling rate : 48.0 KHz

Bit depth : 16 bits

Compression mode : Lossy

Stream size : 298 MiB (19%)

Alignment : Aligned on interleaves

Interleave, duration : 42 ms (1.00 video frame)

SOURCES:

VIDEO: ......... Die Konferenz der Tiere 1080p BDRiP Thanx

AUDIO: ......... Thanx Matey

NOTES:

IMAGiNE bringing you another release..........

Animals United

Not much to say here, this was a straight forward rip here source was very nice so....
Audio is nice as well

Enjoy Folks!

GREETS:



FLAWL3SS,ViSiON,Rx,ELEKTRI4KA,ADDiCTED,Autotron,CiNEDUB,CRYS,T0XiCiNK ,

And to all the other p2p grps past and present



Looking for these,syncers,cammers,audio,silver supplier.....Have anything to offer????......

Contact us imaginegroup@hushmail.com